<svg xmlns="http://www.w3.org/2000/svg" width="1706.667" height="1706.667" viewBox="0 0 1280 1280"><path d="M403 2.1c0 1.4-2.1 4.2-5.4 7.3-6.8 6.5-13.8 20.3-18.6 37.2-4.9 16.6-5.9 47.8-2 61.4 3.7 13 7.8 24.6 7.9 22 .1-1.4-1.1-5.9-2.4-10-3.6-10.5-5.3-20.9-3.6-21.9 1-.7 1-1.7-.3-5.5-1.8-5.3-2.3-26.1-.6-27.1.6-.3 1-.5 1-.3 0 2.1 3.3 26.3 4.1 29.6.7 3.4.7 4.7-.2 5.3-.9.5-.8 1.8.5 5 2.7 6.7 9.8 21.1 11.9 23.9 1.7 2.5 4.1 12.9 6.6 29 1.4 8.7 4 18.4 5.8 22 .7 1.4 1.3 3 1.3 3.6 0 .9 4.1 3.4 5.7 3.4.3 0 .3-2.3.1-5.1l-.5-5.2 3.3 3.9c1.9 2.1 3.8 5.5 4.4 7.5.6 2.1 1.6 3.9 2.4 4.2.8.3 2.1 2.7 3.1 5.4.9 2.6 2.4 6.1 3.2 7.7 1.1 1.9 1.2 3 .5 3.5-.8.5-.3 2.4 1.3 5.9 1.3 2.9 2.6 5.2 2.8 5.2.3 0 0-1.9-.6-4.1-.7-3-.7-4.7.1-6 1.2-1.8-.7-8.8-4.3-16.6-.8-1.7-1.8-4.6-2.2-6.5-.6-3.3-.6-3.2 4.8 2.6 3 3.2 6.5 7.6 7.9 9.7 3.7 5.5 10.4 12.6 12.6 13.3 3 .9 6.6 4.7 11.3 11.9 3.7 5.5 4.7 6.4 6.2 5.7 3-1.7 3.8-1.2 7.9 5.5 2.3 3.5 5.1 6.7 6.3 7.1 1.2.4 5.1 3.6 8.7 7.1 3.6 3.5 10.4 9.4 15.2 13.1 10.2 7.8 10.1 7.2 6.7 23.5-2.7 13.2-6.8 25.6-8.8 26.6-.9.4-5.2.5-9.6.1-10.9-.9-18.7.9-31 6.9-13.7 6.8-26.1 18.1-32.3 29.3-5 9.1-13.7 33.6-15.1 43-.6 3.4-1.5 13.9-2.1 23.1-1.2 18.8-.5 25.2 3.6 34.6 2.4 5.3 2.6 7 3.5 33.1 1.8 54.5 2.1 88.1 1 123-1.8 58.9-3.9 72-18.6 118.5-8.3 26-9.9 35.6-12 72.8-2.2 38.1-7.3 112.1-9 130.7-3.6 38.7-7.3 64.9-13 91.5-1.9 8.9-3.9 20.6-4.5 26-.7 5.5-2 11.9-3 14.2-3.1 7.1-17.8 28.7-35.9 52.8-9.5 12.6-18.8 25-20.6 27.5-1.9 2.5-7.7 8.7-12.9 13.7-6.9 6.7-10.3 10.8-12.6 15.4-1.8 3.5-5.5 10.1-8.2 14.7-5.9 9.8-12 24.4-11.2 26.7.8 2 4.6 2.9 9.1 2 3.7-.7 7.9-4.3 14.6-12.5l2.8-3.5-.5 3.9c-.3 2.2-2.6 8.3-5 13.5-5.2 11-11.9 31.1-11.4 34.4.4 3 5.1 5.1 9.6 4.2 5.5-1 10.4-7.1 17.3-21.4 8.2-17 11-22.4 12.2-23.6 2-2-.3 5.6-4.7 15.7-2.4 5.7-5.8 14.7-7.5 20.1-3.5 11.1-3.3 12.8 2.5 14.7 10.3 3.4 18-3.8 27.3-25.5 9-21.2 27.8-51.6 34.7-56.1 4-2.7 14.9-5.3 24.8-6 10.7-.7 18.3-2.6 24.8-6.2 2.6-1.5 4.9-2.4 5.2-2.1 1.5 1.5 10.8 55.2 15.6 90.4 1.7 12.6 3.3 24 3.6 25.3l.4 2.2h395.8l.6-5.3c.3-2.8.8-11.3 1.1-18.7.8-16.8 5-88.4 6.7-112 3.1-45.5 0-144-5.6-179.5-9.7-60.7-10.2-70.8-5.5-121.5 1.5-16.8 2.2-35.7 2.8-74.8.5-31.8 1.2-52.7 1.8-53.3.6-.6 4.2-1.1 8-1.2 8.7-.3 12.5-2.8 17-11.4 6.3-11.7 7.3-16.6 7.3-34.6 0-28-2.5-52.4-7.7-74.3l-2.7-11.5 2.8-11.2c4.8-19.1 4.6-33.2-.9-50.5-4.4-13.9-14.9-27.2-30.7-39.1-3.7-2.8-6-5.4-6.7-7.4-4-12.6-16.8-67.4-20.6-88-.9-4.9-2.3-10.7-3.1-13-2.3-6.5-9.9-17.9-15.1-22.8-5.2-4.9-20.9-15-28-18-3.7-1.6-33.3-10.6-64.7-19.8-8.6-2.5-9-2.7-12.9-8.1-2.3-3-6.1-8-8.6-11-5.8-7.1-10.4-17.5-20.2-45.9-1.1-3-2.6-6.5-3.4-7.7-2.3-3.6-3.8-24.2-2.4-33.7.8-5.1.9-12.4.4-20.6-1.3-23.9-1.4-23.4 1.8-24.9 1.5-.7 2.7-2 2.7-2.8 0-.7.9-1.4 2-1.4 2.6 0 2.6-2.2 0-4.5-3.7-3.3-2.2-5.7 2.1-3.4 4.3 2.3 4 .1-.4-2.4-4.2-2.5-6.7-6-5.3-7.4.3-.4 1.4.1 2.4 1 1 1 2.2 1.7 2.6 1.7 1.5 0 .2-12-2.2-19.5-1.4-4.4-2.6-10.7-2.7-14-.1-3.3-.7-7.6-1.4-9.5-1.5-4.6-1.4-5.9.4-3.6.7 1 2.1 4.4 3 7.5 2.9 9.6 3.6 11 6.6 12.5l3 1.5-.6-3.7c-.4-2-1-4.8-1.5-6.2-1.2-3.7-2.4-10.2-2.1-12.3.1-1-.2-2.4-.8-3-.5-.7-2.5-4.8-4.4-9.2-1.9-4.4-5.5-12.9-8.1-18.8-2.6-5.9-4.8-12.3-5-14.1-.1-1.9-1.1-4.7-2.1-6.2-1-1.6-3.2-5.5-4.9-8.7-1.6-3.1-3.5-5.7-4.2-5.7-1.3 0-2.4-2.2-2.4-4.7 0-.8-3.1-5.4-6.9-10.2-3.8-4.8-7.5-9.7-8.2-10.9L606.5 0H403v2.1zm234 55.6c3.3 6.1 7.2 15.4 6.6 16-.4.5-10.6-19.3-10.6-20.6 0-2.1.9-1.1 4 4.6zm-3.1 4.8c0 .5-.9-.1-1.9-1.4-1.1-1.3-2-3.3-2-4.5.1-1.7.4-1.4 2 1.4 1.1 1.9 1.9 3.9 1.9 4.5zM423 161.7c0 2.4-2.5.9-2.8-1.7-.3-2.1-.2-2.2 1.2-1.1.9.7 1.6 2 1.6 2.8zm314.2 239.9c2.3 2 6.7 5.3 9.5 7.2 4.4 2.9 5.3 4.1 5.8 7.1.3 2 1.3 6.9 2.2 10.8.9 4 1.3 7.6.9 8-.4.4-5.5-4.2-11.4-10.3-9.3-9.6-11.1-12-13.3-18-1.5-3.8-2.5-7.2-2.2-7.7 1-1.6 4.4-.5 8.5 2.9zM531.8 628.7c2.8 4.3 5.2 8.6 5.2 9.7 0 1-2.3 7.3-5.1 14-2.8 6.6-5.6 13.4-6.1 15.1-3.9 13.2-5 19-5.3 29.4-.5 12.4-1.1 17.1-2.6 17.1-2.1 0-.5-36.2 3.2-69.5 2.3-21.4 2.7-23.5 4.2-23.5.7 0 3.6 3.5 6.5 7.7z"/></svg>